<svg width="135" height="34" viewBox="0 0 135 34" fill="none" xmlns="http://www.w3.org/2000/svg">
<path d="M12.5176 1.33789H13.1152C13.9355 1.33789 14.8789 1.44336 15.9453 1.6543C17.0117 1.85352 17.8496 1.9707 18.459 2.00586C19.0684 2.04102 19.5488 2.1582 19.9004 2.35742C20.5801 2.74414 20.9199 3.74609 20.9199 5.36328C20.9199 6.98047 20.6152 7.78906 20.0059 7.78906C19.8066 7.78906 19.3145 7.34375 18.5293 6.45312C17.7441 5.55078 16.9941 4.90625 16.2793 4.51953C15.0137 3.83984 13.5957 3.5 12.0254 3.5C11.123 3.5 10.2148 3.74609 9.30078 4.23828C6.54688 5.70312 5.16992 8.89062 5.16992 13.8008C5.18164 16.8477 5.89062 19.3086 7.29688 21.1836C8.70312 23.0586 10.6602 23.9961 13.168 23.9961C15.3125 23.9961 17.1289 23.2871 18.6172 21.8691C19.543 20.9902 20.1348 20.5508 20.3926 20.5508C20.8848 20.5508 21.1309 20.9082 21.1309 21.623C21.1309 21.9863 20.9023 22.5547 20.4453 23.3281C19.9883 24.1016 19.4785 24.6465 18.916 24.9629C17.334 25.8418 15.2773 26.2812 12.7461 26.2812H12.1309C10.7129 26.2812 9.27734 26.0234 7.82422 25.5078C4.88281 24.4648 2.82031 22.4023 1.63672 19.3203C1.02734 17.7148 0.722656 15.9629 0.722656 14.0645C0.722656 12.1543 1.02734 10.4023 1.63672 8.80859C2.86719 5.57422 4.95312 3.37695 7.89453 2.2168C9.38281 1.63086 10.9238 1.33789 12.5176 1.33789ZM24.418 25.3848C24.418 25.1387 24.6816 24.8223 25.209 24.4355C25.748 24.0488 26.1113 23.4453 26.2988 22.625C26.4863 21.793 26.5801 18.6523 26.5801 13.2031C26.5801 7.75391 26.5156 4.66602 26.3867 3.93945C26.2695 3.21289 25.9707 2.69141 25.4902 2.375C24.7168 1.87109 24.3301 1.56055 24.3301 1.44336V1.23242C24.3301 1.0332 24.5 0.857422 24.8398 0.705078C25.8945 0.248047 27.3008 0.0195312 29.0586 0.0195312H29.4102C30.0078 0.0195312 30.3535 0.423828 30.4473 1.23242C30.459 1.33789 30.4648 2.22266 30.4648 3.88672V7.66602L30.4473 8.38672V9.49414L30.4297 10.2148C30.4297 10.2148 30.4297 12.0723 30.4297 15.7871C30.4297 19.2559 30.4824 21.4062 30.5879 22.2383C30.7051 23.0586 30.9688 23.6562 31.3789 24.0312C31.4258 24.0664 31.6719 24.2188 32.1172 24.4883C32.5625 24.7578 32.7852 25.0332 32.7852 25.3145C32.7852 25.7246 32.0586 25.9297 30.6055 25.9297L29.8848 25.9648H29.1641L26.2812 26.0176H25.9121C24.916 26.0176 24.418 25.8066 24.418 25.3848ZM46.584 14.5742V14.0293C46.584 13.1621 46.2734 12.3828 45.6523 11.6914C45.0312 10.9883 44.2695 10.6367 43.3672 10.6367H43.0332C42.8691 10.6602 42.7578 10.6719 42.6992 10.6719C41.8789 10.6719 41.0996 11.1406 40.3613 12.0781C39.6348 13.0156 39.2715 14.0176 39.2715 15.084V15.3125C39.2715 15.6875 39.4941 15.875 39.9395 15.875C40.1152 15.9102 40.209 15.9277 40.2207 15.9277L40.625 15.9453H40.7305L40.8535 15.9277L44.2461 15.7344L44.8789 15.6641C46.0156 15.6641 46.584 15.3008 46.584 14.5742ZM39.2715 19.2324C39.2715 20.5684 39.7754 21.6875 40.7832 22.5898C41.791 23.4922 43.0684 23.9434 44.6152 23.9434C45.2363 23.9434 45.7988 23.8555 46.3027 23.6797C46.8184 23.4922 47.375 23.2695 47.9727 23.0117C48.582 22.7539 48.9629 22.625 49.1152 22.625C49.584 22.625 49.8184 22.877 49.8184 23.3809C49.8184 24.0605 48.9512 24.7871 47.2168 25.5605C46.0918 26.0645 44.8848 26.3164 43.5957 26.3164H43.209C41.0059 26.3164 39.1777 25.6484 37.7246 24.3125C36.9395 23.5859 36.3301 22.6602 35.8965 21.5352C35.4629 20.3984 35.2461 19.1797 35.2461 17.8789L35.2637 17.4746V17.0703C35.2637 15.9453 35.5215 14.8379 36.0371 13.748C36.5645 12.6582 37.1914 11.7617 37.918 11.0586C39.4531 9.58203 41.2754 8.83789 43.3848 8.82617C46.5723 8.82617 48.6934 10.0684 49.748 12.5527C50.0762 13.3379 50.2402 14.0586 50.2402 14.7148V15.0664C50.2402 15.875 49.9062 16.4199 49.2383 16.7012C48.5703 16.9707 46.9941 17.1934 44.5098 17.3691C42.0254 17.5449 40.6777 17.6621 40.4668 17.7207C39.6699 17.9199 39.2715 18.4238 39.2715 19.2324ZM61.6133 26.2285H61.209C60.6582 26.2285 60.1133 25.7188 59.5742 24.6992C59.3047 24.1836 58.4785 22.1621 57.0957 18.6348C55.7129 15.1074 54.8691 13.0742 54.5645 12.5352C54.2598 11.9844 53.7852 11.498 53.1406 11.0762C52.4961 10.6426 52.1738 10.3145 52.1738 10.0918C52.1738 9.72852 52.4316 9.49414 52.9473 9.38867C53.4629 9.2832 54.6406 9.23047 56.4805 9.23047C58.3203 9.23047 59.2402 9.49414 59.2402 10.0215C59.2402 10.0566 59.1758 10.25 59.0469 10.6016C58.918 10.9414 58.8535 11.3164 58.8535 11.7266C58.8535 13.332 59.7676 16.25 61.5957 20.4805C61.9355 21.2539 62.1758 21.6406 62.3164 21.6406C62.457 21.6406 62.6855 21.2891 63.002 20.5859C64.8887 16.4141 65.832 13.5195 65.832 11.9023C65.832 11.5039 65.6797 11.082 65.375 10.6367C65.0703 10.1914 64.918 9.96289 64.918 9.95117C64.918 9.44727 66.0078 9.19531 68.1875 9.19531H68.6094C70.0391 9.19531 70.7539 9.44141 70.7539 9.93359C70.7539 10.3555 70.4434 10.7715 69.8223 11.1816C69.2012 11.5801 68.7266 12.0781 68.3984 12.6758C68.2461 12.9453 67.4668 14.8262 66.0605 18.3184C64.6543 21.7988 63.7051 23.9902 63.2129 24.8926C62.7207 25.7832 62.1875 26.2285 61.6133 26.2285ZM83.5684 14.5742V14.0293C83.5684 13.1621 83.2578 12.3828 82.6367 11.6914C82.0156 10.9883 81.2539 10.6367 80.3516 10.6367H80.0176C79.8535 10.6602 79.7422 10.6719 79.6836 10.6719C78.8633 10.6719 78.084 11.1406 77.3457 12.0781C76.6191 13.0156 76.2559 14.0176 76.2559 15.084V15.3125C76.2559 15.6875 76.4785 15.875 76.9238 15.875C77.0996 15.9102 77.1934 15.9277 77.2051 15.9277L77.6094 15.9453H77.7148L77.8379 15.9277L81.2305 15.7344L81.8633 15.6641C83 15.6641 83.5684 15.3008 83.5684 14.5742ZM76.2559 19.2324C76.2559 20.5684 76.7598 21.6875 77.7676 22.5898C78.7754 23.4922 80.0527 23.9434 81.5996 23.9434C82.2207 23.9434 82.7832 23.8555 83.2871 23.6797C83.8027 23.4922 84.3594 23.2695 84.957 23.0117C85.5664 22.7539 85.9473 22.625 86.0996 22.625C86.5684 22.625 86.8027 22.877 86.8027 23.3809C86.8027 24.0605 85.9355 24.7871 84.2012 25.5605C83.0762 26.0645 81.8691 26.3164 80.5801 26.3164H80.1934C77.9902 26.3164 76.1621 25.6484 74.709 24.3125C73.9238 23.5859 73.3145 22.6602 72.8809 21.5352C72.4473 20.3984 72.2305 19.1797 72.2305 17.8789L72.248 17.4746V17.0703C72.248 15.9453 72.5059 14.8379 73.0215 13.748C73.5488 12.6582 74.1758 11.7617 74.9023 11.0586C76.4375 9.58203 78.2598 8.83789 80.3691 8.82617C83.5566 8.82617 85.6777 10.0684 86.7324 12.5527C87.0605 13.3379 87.2246 14.0586 87.2246 14.7148V15.0664C87.2246 15.875 86.8906 16.4199 86.2227 16.7012C85.5547 16.9707 83.9785 17.1934 81.4941 17.3691C79.0098 17.5449 77.6621 17.6621 77.4512 17.7207C76.6543 17.9199 76.2559 18.4238 76.2559 19.2324ZM99.2305 25.3145C99.2305 25.7715 98.1699 26 96.0488 26H94.1855L93.4473 25.9648L92.3398 25.9473C91.0977 25.9473 90.4766 25.7246 90.4766 25.2793C90.4766 24.9629 90.752 24.6289 91.3027 24.2773C91.8652 23.9141 92.2402 23.4512 92.4277 22.8887C92.627 22.3145 92.7266 20.6328 92.7266 17.8438C92.7266 15.0547 92.6328 13.3613 92.4453 12.7637C92.2695 12.166 91.9883 11.7383 91.6016 11.4805C90.9102 11.0234 90.5645 10.6895 90.5645 10.4785C90.5645 10.2676 90.6875 10.0801 90.9336 9.91602C91.6602 9.42383 92.8906 9.17773 94.625 9.17773H94.959C95.627 9.17773 96.1016 9.51758 96.3828 10.1973C96.6641 10.8652 96.8926 11.1992 97.0684 11.1992C97.2441 11.1992 97.543 11.0352 97.9648 10.707C98.3984 10.3789 98.9141 10.0508 99.5117 9.72266C100.121 9.39453 100.795 9.23047 101.533 9.23047C102.271 9.23047 102.834 9.42383 103.221 9.81055C103.619 10.1855 103.818 10.6719 103.818 11.2695C103.807 11.8789 103.648 12.3359 103.344 12.6406C103.039 12.9453 102.711 13.0977 102.359 13.0977C102.008 13.0977 101.545 12.957 100.971 12.6758C100.396 12.3828 99.916 12.2363 99.5293 12.2363C99.1426 12.2363 98.7207 12.4004 98.2637 12.7285C97.8066 13.0449 97.4141 13.6191 97.0859 14.4512C96.7695 15.2715 96.6113 16.6836 96.6113 18.6875C96.6113 20.6797 96.752 21.9688 97.0332 22.5547C97.3145 23.1289 97.748 23.6562 98.334 24.1367C98.9316 24.6172 99.2305 25.0098 99.2305 25.3145ZM106.086 25.3848C106.086 25.1387 106.35 24.8223 106.877 24.4355C107.416 24.0488 107.779 23.4453 107.967 22.625C108.154 21.793 108.248 18.6523 108.248 13.2031C108.248 7.75391 108.184 4.66602 108.055 3.93945C107.938 3.21289 107.639 2.69141 107.158 2.375C106.385 1.87109 105.998 1.56055 105.998 1.44336V1.23242C105.998 1.0332 106.168 0.857422 106.508 0.705078C107.562 0.248047 108.969 0.0195312 110.727 0.0195312H111.078C111.676 0.0195312 112.021 0.423828 112.115 1.23242C112.127 1.33789 112.133 2.22266 112.133 3.88672V7.66602L112.115 8.38672V9.49414L112.098 10.2148C112.098 10.2148 112.098 12.0723 112.098 15.7871C112.098 19.2559 112.15 21.4062 112.256 22.2383C112.373 23.0586 112.637 23.6562 113.047 24.0312C113.094 24.0664 113.34 24.2188 113.785 24.4883C114.23 24.7578 114.453 25.0332 114.453 25.3145C114.453 25.7246 113.727 25.9297 112.273 25.9297L111.553 25.9648H110.832L107.949 26.0176H107.58C106.584 26.0176 106.086 25.8066 106.086 25.3848ZM122.662 11.4453C122.662 12.6992 123.635 15.6758 125.58 20.375C125.85 21.0312 126.066 21.3594 126.23 21.3594C126.395 21.3594 126.699 20.8848 127.145 19.9355C128.762 16.5137 129.57 13.9297 129.57 12.1836C129.57 11.6797 129.488 11.2695 129.324 10.9531L129.131 10.6367C128.85 10.2617 128.709 9.99805 128.709 9.8457C128.709 9.38867 129.453 9.16016 130.941 9.16016H132.066C133.484 9.16016 134.193 9.42969 134.193 9.96875C134.193 10.2734 133.9 10.7422 133.314 11.375C132.74 11.9961 132.324 12.5996 132.066 13.1855C131.809 13.7715 130.865 16.2207 129.236 20.5332C127.619 24.834 126.365 27.7695 125.475 29.3398C124.584 30.9219 123.752 32.0586 122.979 32.75C122.217 33.4414 121.432 33.7871 120.623 33.7871H120.166C119.557 33.7871 119.035 33.6113 118.602 33.2598C118.18 32.9199 117.969 32.5625 117.969 32.1875C117.969 31.8242 118.115 31.5254 118.408 31.291C118.713 31.0684 119.111 30.957 119.604 30.957L120.008 30.9922C120.184 31.0039 120.453 31.0098 120.816 31.0098C121.637 31.0098 122.393 30.4824 123.084 29.4277C123.775 28.373 124.121 27.3066 124.121 26.2285C124.121 25.1504 122.451 21.0781 119.111 14.0117C118.807 13.3672 118.355 12.6992 117.758 12.0078C117.172 11.3164 116.879 10.8359 116.879 10.5664C116.879 10.1211 117.189 9.81055 117.811 9.63477C118.432 9.44727 119.428 9.35352 120.799 9.35352C122.182 9.35352 122.873 9.65234 122.873 10.25C122.732 10.8594 122.662 11.2578 122.662 11.4453Z" fill="black"/>
</svg>
